<?xml version="1.0" standalone="no"?><!-- Generator: Gravit.io --><svg xmlns="http://www.w3.org/2000/svg" xmlns:xlink="http://www.w3.org/1999/xlink" style="isolation:isolate" viewBox="0 0 300 300" width="300" height="300"><path d=" M 174.395478 220.971664 L 224.395478 249.839177 L 219.395478 252.725929 L 169.395478 223.858415 L 174.395478 220.971664 Z " fill="rgb(255,2,103)"/><path d=" M 231.895478 248.395802 L 231.895478 248.395802 C 227.756115 246.005939 221.034841 246.005939 216.895478 248.395802 L 216.895478 248.395802 C 212.756115 250.785664 212.756115 254.666193 216.895478 257.056056 L 216.895478 257.056056 C 221.034841 259.445918 227.756115 259.445918 231.895478 257.056056 L 231.895478 257.056056 C 236.034841 254.666193 236.034841 250.785664 231.895478 248.395802 Z  M 226.895478 251.282553 L 226.895478 251.282553 C 225.51569 250.485932 223.275266 250.485932 221.895478 251.282553 L 221.895478 251.282553 C 220.51569 252.079174 220.51569 253.372684 221.895478 254.169304 L 221.895478 254.169304 C 223.275266 254.965925 225.51569 254.965925 226.895478 254.169304 L 226.895478 254.169304 C 228.275266 253.372684 228.275266 252.079174 226.895478 251.282553 Z " fill-rule="evenodd" fill="rgb(255,2,103)"/><path d=" M 116.209046 140.840669 L 66.209046 111.973155 L 71.209046 109.086403 L 121.209046 137.953917 L 116.209046 140.840669 Z " fill="rgb(255,2,103)"/><path d=" M 58.709045 113.416531 L 58.709045 113.416531 C 62.848408 115.806393 69.569683 115.806393 73.709046 113.416531 L 73.709046 113.416531 C 77.848408 111.026668 77.848408 107.146138 73.709046 104.756276 L 73.709046 104.756276 C 69.569683 102.366414 62.848408 102.366414 58.709045 104.756276 L 58.709045 104.756276 C 54.569682 107.146138 54.569682 111.026668 58.709045 113.416531 Z  M 63.709045 110.529779 L 63.709045 110.529779 C 65.088833 111.3264 67.329258 111.3264 68.709046 110.529779 L 68.709046 110.529779 C 70.088833 109.733158 70.088833 108.439648 68.709046 107.643028 L 68.709046 107.643028 C 67.329258 106.846407 65.088833 106.846407 63.709045 107.643028 L 63.709045 107.643028 C 62.329258 108.439648 62.329258 109.733158 63.709045 110.529779 Z " fill-rule="evenodd" fill="rgb(255,2,103)"/><path d=" M 78.104523 186.330647 L 28.104523 215.198161 L 33.104523 218.084912 L 83.104523 189.217399 L 78.104523 186.330647 Z " fill="rgb(255,2,103)"/><path d=" M 20.604522 213.754785 L 20.604522 213.754785 C 24.743885 211.364923 31.46516 211.364923 35.604523 213.754785 L 35.604523 213.754785 C 39.743886 216.144647 39.743886 220.025177 35.604523 222.415039 L 35.604523 222.415039 C 31.46516 224.804902 24.743885 224.804902 20.604522 222.415039 L 20.604522 222.415039 C 16.465159 220.025177 16.465159 216.144647 20.604522 213.754785 Z  M 25.604523 216.641536 L 25.604523 216.641536 C 26.98431 215.844916 29.224735 215.844916 30.604523 216.641536 L 30.604523 216.641536 C 31.98431 217.438157 31.98431 218.731667 30.604523 219.528288 L 30.604523 219.528288 C 29.224735 220.324909 26.98431 220.324909 25.604523 219.528288 L 25.604523 219.528288 C 24.224735 218.731667 24.224735 217.438157 25.604523 216.641536 Z " fill-rule="evenodd" fill="rgb(255,2,103)"/><path d=" M 209.395477 175.481685 L 259.395477 146.614171 L 254.395477 143.72742 L 204.395477 172.594933 L 209.395477 175.481685 Z " fill="rgb(255,2,103)"/><path d=" M 266.895478 148.057547 L 266.895478 148.057547 C 262.756115 150.447409 256.03484 150.447409 251.895477 148.057547 L 251.895477 148.057547 C 247.756115 145.667685 247.756115 141.787155 251.895477 139.397292 L 251.895477 139.397292 C 256.03484 137.00743 262.756115 137.00743 266.895478 139.397292 L 266.895478 139.397292 C 271.034841 141.787155 271.034841 145.667685 266.895478 148.057547 Z  M 261.895477 145.170795 L 261.895477 145.170795 C 260.51569 145.967416 258.275265 145.967416 256.895477 145.170795 L 256.895477 145.170795 C 255.51569 144.374175 255.51569 143.080665 256.895477 142.284044 L 256.895477 142.284044 C 258.275265 141.487423 260.51569 141.487423 261.895477 142.284044 L 261.895477 142.284044 C 263.275265 143.080665 263.275265 144.374175 261.895477 145.170795 Z " fill-rule="evenodd" fill="rgb(255,2,103)"/><g filter="url(#3BRZIzyjPrNmpn3fJ6nJyhTd5UhtWvnT)"><path d=" M 132.237659 30.237555 L 232.896491 88.352959 L 238.488648 85.124324 L 137.829818 27.00892 L 132.237659 30.237555 Z " fill="rgb(215,215,215)"/><path d=" M 238.488648 188.440597 L 244.080807 185.211964 L 244.080807 94.810223 L 238.488648 98.038858 L 238.488648 188.440597 Z " fill="rgb(116,116,116)"/><linearGradient id="_lgradient_0" x1="0.3324928977272743" y1="0.012219037211296746" x2="0.778444602272724" y2="0.7973620968212625" gradientTransform="matrix(11.184315,0,0,12.914534,232.896491,85.124324)" gradientUnits="userSpaceOnUse"><stop offset="2.1739130434782608%" stop-opacity="1" style="stop-color:rgb(215,215,215)"/><stop offset="97.82608695652173%" stop-opacity="1" style="stop-color:rgb(116,116,116)"/></linearGradient><path d=" M 238.488649 98.038858 L 244.080806 94.810223 C 243.824499 90.661577 241.971629 87.444123 238.488649 85.124324 L 232.896491 88.352959 C 236.554693 90.480946 238.42993 93.720763 238.488649 98.038858 Z " fill="url(#_lgradient_0)"/><path d=" M 137.829815 27.008918 L 137.829815 27.008918 L 132.237657 30.237552 L 126.6455 32.307159 C 126.58792 28.542995 134.28229 25.841226 134.28229 25.841226 C 135.005664 25.706196 136.595257 26.229422 137.829815 27.008918 Z " fill="rgb(215,215,215)"/><path d=" M 126.6455 123.867925 L 238.488648 188.440597 L 238.488648 97.173745 C 238.488648 94.087349 236.318595 90.328707 233.645698 88.785509 L 131.488451 29.804998 C 128.815553 28.261801 126.6455 29.514682 126.6455 32.601077 L 126.6455 123.867925 Z " fill="rgb(23,23,23)"/><path d=" M 238.488648 188.440597 L 238.488648 194.897864 L 160.198446 240.098734 L 160.198446 233.641467 L 238.488648 188.440597 Z " fill="rgb(116,116,116)"/><path d=" M 48.355291 175.526063 L 48.355291 181.983329 L 149.014128 240.098734 L 149.014128 233.641467 L 48.355291 175.526063 Z " fill="rgb(215,215,215)"/><path d=" M 48.355291 181.983329 L 46.611831 180.305682 C 45.722237 179.44967 45 177.752391 45 176.517833 L 45 173.788741 C 45 172.245543 46.086889 170.369459 47.425632 169.601847 L 48.355291 169.068796 L 48.355291 181.983329 Z " fill="rgb(215,215,215)"/><path d=" M 126.6455 123.867925 L 238.488648 188.440597 L 159.449237 234.074023 C 156.77634 235.617221 152.436234 235.617221 149.763337 234.074023 L 47.60609 175.093508 C 44.933193 173.55031 44.933193 171.044548 47.60609 169.50135 L 126.6455 123.867925 Z " fill="rgb(255,255,255)"/><path d=" M 104.276872 175.526063 L 143.42197 198.126498 L 121.053341 211.041032 L 81.908244 188.440597 L 104.276872 175.526063 Z " fill="rgb(215,215,215)"/><linearGradient id="_lgradient_1" x1="0.00023372058236933286" y1="0.5000303039919474" x2="0.9894825737933801" y2="0.49863632036237027" gradientTransform="matrix(11.184311,0,0,7.886477,149.014132,233.641467)" gradientUnits="userSpaceOnUse"><stop offset="2.1739130434782608%" stop-opacity="1" style="stop-color:rgb(215,215,215)"/><stop offset="96.95652173913044%" stop-opacity="1" style="stop-color:rgb(116,116,116)"/></linearGradient><path d=" M 160.198443 240.098735 L 160.198443 233.641467 C 156.302109 235.816062 152.618746 235.860799 149.014132 233.641467 L 149.014132 240.098735 C 152.649038 241.998751 156.388319 242.009936 160.198443 240.098735 Z " fill="url(#_lgradient_1)"/><path d=" M 126.6455 130.325195 L 227.304334 188.440597 L 182.567074 214.269667 L 81.908244 156.154262 L 126.6455 130.325195 Z " fill="rgb(215,215,215)"/><path d=" M 238.488648 188.440597 L 244.080805 185.211964 C 243.8944 189.400603 242.041532 192.640421 238.488648 194.897864 L 238.488648 188.440597 Z " fill="rgb(116,116,116)"/><path d=" M 133.75 42.978583 L 153.749999 54.525589 L 153.749999 60.299092 L 133.75 48.752086 L 133.75 42.978583 Z " fill="rgb(235,235,235)"/><path d=" M 133.75 54.525588 L 173.750001 77.6196 L 173.750001 83.393102 L 133.75 60.299092 L 133.75 54.525588 Z " fill="rgb(74,134,232)"/><path d=" M 133.75 66.072594 L 183.750001 94.940108 L 183.750001 100.713611 L 133.75 71.846096 L 133.75 66.072594 Z " fill="rgb(255,0,0)"/><path d=" M 133.75 77.619599 L 158.750001 92.053357 L 158.750001 97.826859 L 133.75 83.393103 L 133.75 77.619599 Z " fill="rgb(235,235,235)"/><path d=" M 133.75 89.166605 L 168.75 109.373864 L 168.75 115.147367 L 133.75 94.940107 L 133.75 89.166605 Z " fill="rgb(0,255,0)"/><path d=" M 133.75 100.71361 L 173.750001 123.807621 L 173.750001 129.581124 L 133.75 106.487113 L 133.75 100.71361 Z " fill="rgb(74,134,232)"/></g><defs><filter id="3BRZIzyjPrNmpn3fJ6nJyhTd5UhtWvnT" x="-200%" y="-200%" width="400%" height="400%" filterUnits="objectBoundingBox" color-interpolation-filters="sRGB"><feGaussianBlur xmlns="http://www.w3.org/2000/svg" in="SourceGraphic" stdDeviation="6.440413594258542"/><feOffset xmlns="http://www.w3.org/2000/svg" dx="0" dy="2" result="pf_100_offsetBlur"/><feFlood xmlns="http://www.w3.org/2000/svg" flood-color="#000000" flood-opacity="0.35"/><feComposite xmlns="http://www.w3.org/2000/svg" in2="pf_100_offsetBlur" operator="in" result="pf_100_dropShadow"/><feBlend xmlns="http://www.w3.org/2000/svg" in="SourceGraphic" in2="pf_100_dropShadow" mode="normal"/></filter></defs></svg>